<?xml version="1.0" encoding="utf-8"?>
<!-- Generator: Adobe Illustrator 26.1.0, SVG Export Plug-In . SVG Version: 6.00 Build 0)  -->
<svg version="1.1" id="Camada_1" xmlns="http://www.w3.org/2000/svg" xmlns:xlink="http://www.w3.org/1999/xlink" x="0px" y="0px"
	 viewBox="0 0 344.5 55.8" style="enable-background:new 0 0 344.5 55.8;" xml:space="preserve">
<style type="text/css">
	.st0{fill:#137C9C;}
	.st1{fill:#929393;}
</style>
<path class="st0" d="M275.2,54.8h-11.9l-6.3-11l-1.6-0.1l-1.8,11.1h-11.1l6.4-35.7l0.7-0.2c7.8,0.9,23.8-3.1,26.9,6.8
	c2,6.4-1.7,14.2-7.8,16.8L275.2,54.8L275.2,54.8z M257.1,34.3h5.5c0.2,0,1.8-0.5,2.1-0.6c1.2-0.6,2-2.8,1.3-4c-1.1-1.8-5.9-1-7.7-1
	L257.1,34.3L257.1,34.3z"/>
<path class="st0" d="M224,18.5c26.2-2.4,21.5,33.4-0.8,36.7c-13.2,2-22-7-18.6-20.1C207,26.2,214.8,19.3,224,18.5z M223.8,28.5
	c-10.1,0.8-12.8,18.5-0.3,16.6C231.4,43.9,234.4,27.7,223.8,28.5z"/>
<path class="st1" d="M80.9,31.8h6.9l2.2-12.9H101l-6.4,35.9H83.8l2.2-12.9h-6.9l-2.2,12.9H65.8L72,18.9h10.8c0.1,0,0.4,0.3,0.3,0.5
	L80.9,31.8z"/>
<path class="st1" d="M132.2,18.9l-1.6,10l-15.8,0l-0.4,3.6h13.2l-1.5,8.8l-13,0.1c-0.5,0.2-0.7,2.9-0.8,3.5h15.3
	c0.1,0,0.4,0.3,0.2,0.5l-1.7,9.4H99.2l6.6-35.9L132.2,18.9L132.2,18.9z"/>
<path class="st0" d="M338.9,18.9l-1.6,10l-15.8,0l-0.4,3.6h13.2l-1.5,8.8l-13,0.1c-0.5,0.2-0.7,2.9-0.8,3.5h15.3
	c0.1,0,0.4,0.3,0.2,0.5l-1.7,9.4h-26.8l6.6-35.9L338.9,18.9L338.9,18.9z"/>
<path class="st0" d="M205.9,18.9c0.2,0.1,0.4,0.5,0.3,0.8l-1.6,9.3l-15.8,0l-0.7,3.6h13.4l-1.6,8.9l-13.3,0l-2.2,13.4h-11.1
	l6.6-35.9L205.9,18.9L205.9,18.9z"/>
<path class="st0" d="M308.5,18.9c0.2,0.1,0.4,0.5,0.3,0.8l-1.6,8.8l-8.7,0.2l-4.7,26.2h-11.1l4.7-26.3H279c0.2-3,1-6,1.4-9
	c0-0.2,0.4-0.6,0.5-0.6L308.5,18.9L308.5,18.9z"/>
<path class="st0" d="M36.8,33.4l6.8-26.3l19.2-5.3L57,33.4H36.8z"/>
<path class="st1" d="M142.3,45.4H155l-1.7,9.4h-23.8l6.6-35.9h10.5c0.1,0,0.4,0.3,0.3,0.5L142.3,45.4L142.3,45.4z"/>
<path class="st0" d="M11.6,33.4l2.9-16.9l23.9-7.2l-5.9,24.1H11.6z"/>
<path class="st1" d="M174.4,18.9l-6.2,35.9H157l6.6-35.9H174.4z"/>
<path class="st0" d="M35.2,55l1.6-10.2L56.1,39L52.9,55H35.2z"/>
<path class="st0" d="M5.6,55l28.9-9.4L33,55H5.6z"/>
</svg>
